#!OML:ASF H:\Terrain\Patient Classification 1\Walking\liu\liu.ASF
:FULLY-SPECIFIED
:DEGREES
248
root 9.78752 16.6938 1.78669 7.06243 -5.18015 -2.97113
lowerback -7.81353 1.30667 -1.09523
upperback -1.48165 1.75503 2.30206
thorax 2.74049 0.858949 3.1725
lowerneck -20.2694 -5.68144 -12.5462
upperneck 22.5164 -7.89964 14.459
head 11.8713 -2.92516 6.26782
rclavicle 2.35591e-015 3.71727e-014
rhumerus -42.7249 14.311 -89.7394
rradius 45.4429
rwrist -25.3428
rhand -27.9911 -26.2933
rfingers 7.12502
rthumb -1.37729 -56.2686
lclavicle 2.35591e-015 3.71727e-014
lhumerus -45.1308 -2.30884 89.8066
lradius 22.7283
lwrist -2.71887
lhand -4.20664 -22.4928
lfingers 7.12502
lthumb 21.5555 6.32767
rfemur 12.1321 1.47334 23.3436
rtibia 22.9546
rfoot -3.02491 -1.30808
rtoes -24.445
lfemur -36.6525 7.73495 -19.4005
ltibia 30.673
lfoot -4.01685 2.03701
ltoes -10.3807
249
root 9.82856 16.715 1.94107 6.88533 -5.2572 -2.63396
lowerback -7.83736 1.28014 -1.28838
upperback -1.29199 1.73729 2.19044
thorax 2.94881 0.844035 3.16857
lowerneck -20.803 -5.73943 -12.466
upperneck 22.6878 -7.92914 14.3181
head 12.0374 -2.92658 6.20008
rclavicle 8.83349e-015 2.10712e-014
rhumerus -42.3239 14.001 -89.5805
rradius 44.6566
rwrist -25.4656
rhand -27.658 -26.3415
rfingers 7.12502
rthumb -1.0556 -56.3187
lclavicle 8.83349e-015 2.10712e-014
lhumerus -44.3867 -2.82198 89.9936
lradius 22.6571
lwrist -2.83068
lhand -5.26992 -23.0731
lfingers 7.12502
lthumb 20.5341 5.86094
rfemur 10.9761 0.489186 22.5331
rtibia 25.9477
rfoot -1.86343 -1.33181
rtoes -23.0621
lfemur -35.7268 7.60501 -19.82
ltibia 30.5573
lfoot -4.67852 1.97044
ltoes -9.47348
250
root 9.87299 16.7492 2.09402 6.64183 -5.56514 -2.15232
lowerback -7.56526 1.32727 -1.54563
upperback -1.29067 1.82681 1.9843
thorax 2.79152 0.889242 3.09943
lowerneck -21.086 -5.75796 -12.3234
upperneck 22.8246 -7.96676 14.2384
head 12.1424 -2.92875 6.14276
rclavicle -1.43622e-014 1.59028e-015
rhumerus -42.2717 13.3364 -89.4862
rradius 43.9187
rwrist -25.3511
rhand -27.7702 -25.9594
rfingers 7.12502
rthumb -1.16397 -55.936
lclavicle -1.43622e-014 1.59028e-015
lhumerus -44.0805 -3.56 90.3199
lradius 22.9404
lwrist -3.01029
lhand -6.51229 -22.6443
lfingers 7.12502
lthumb 19.3398 6.41401
rfemur 9.8225 -0.301819 21.5394
rtibia 28.9116
rfoot -0.604868 -1.48997
rtoes -23.3197
lfemur -34.6128 7.72126 -20.4426
ltibia 30.2184
lfoot -5.13176 1.88729
ltoes -8.93652
251
root 9.91543 16.7823 2.24312 6.44107 -5.86486 -1.72058
lowerback -7.24973 1.31098 -1.83662
upperback -1.42079 1.83044 1.83832
thorax 2.47654 0.895387 3.09941
lowerneck -20.9857 -5.64489 -12.1916
upperneck 22.9226 -7.8489 14.1573
head 12.13 -2.87723 6.11296
rclavicle -3.81558e-014 -1.23246e-014
rhumerus -42.439 12.788 -89.4558
rradius 43.2149
rwrist -24.8281
rhand -27.8789 -25.8605
rfingers 7.12502
rthumb -1.26891 -55.8364
lclavicle -3.81558e-014 -1.23246e-014
lhumerus -43.9357 -3.55412 90.0647
lradius 22.6482
lwrist -3.50867
lhand -7.3134 -23.958
lfingers 7.12502
lthumb 18.5694 5.17565
rfemur 8.54155 -0.84658 20.7117
rtibia 31.9388
rfoot 0.434059 -2.33169
rtoes -22.3406
lfemur -33.5242 8.12694 -21.0958
ltibia 29.629
lfoot -5.61117 1.65189
ltoes -8.34636
252
root 9.95112 16.8164 2.39186 6.36801 -6.07148 -1.22016
lowerback -7.25429 1.20741 -2.37595
upperback -1.4299 1.73539 1.77928
thorax 2.46143 0.84484 3.33397
lowerneck -21.0561 -5.53824 -12.3065
upperneck 22.9825 -7.67383 14.2265
head 12.1469 -2.79853 6.19586
rclavicle 1.99794e-014 1.98785e-016
rhumerus -42.5242 13.0181 -89.4859
rradius 42.957
rwrist -24.8494
rhand -27.9655 -26.4938
rfingers 7.12502
rthumb -1.35255 -56.4693
lclavicle 1.99794e-014 1.98785e-016
lhumerus -43.4636 -3.37375 89.8056
lradius 22.7851
lwrist -4.43362
lhand -7.10774 -23.6459
lfingers 7.12502
lthumb 18.7672 5.46875
rfemur 7.01433 -1.30105 19.9363
rtibia 35.0477
rfoot 1.48913 -3.34518
rtoes -21.7538
lfemur -32.5386 8.5201 -21.806
ltibia 28.8842
lfoot -6.00698 1.22731
ltoes -7.74379
253
root 9.98103 16.8566 2.53432 6.33618 -6.2949 -0.451369
lowerback -7.33212 1.14327 -3.14518
upperback -1.41625 1.71664 1.57308
thorax 2.50349 0.829584 3.55509
lowerneck -21.1932 -5.50607 -12.3259
upperneck 22.974 -7.59993 14.213
head 12.1588 -2.76394 6.20675
rclavicle 3.22746e-014 9.93923e-015
rhumerus -42.4749 12.7221 -89.4034
rradius 42.6444
rwrist -24.5407
rhand -28.1752 -26.5739
rfingers 7.12502
rthumb -1.55508 -56.5479
lclavicle 3.22746e-014 9.93923e-015
lhumerus -42.8952 -3.61744 89.6694
lradius 23.0173
lwrist -4.56074
lhand -6.88502 -22.9376
lfingers 7.12502
lthumb 18.9814 6.15622
rfemur 5.36329 -1.76372 18.9226
rtibia 38.1762
rfoot 2.61231 -3.99006
rtoes -22.7048
lfemur -31.5167 8.6014 -22.7241
ltibia 28.1063
lfoot -6.48005 0.993507
ltoes -7.50078
254
root 10.0146 16.8918 2.66963 6.31887 -6.56767 0.106181
lowerback -7.28672 1.12218 -3.60556
upperback -1.45129 1.72704 1.40406
thorax 2.43234 0.834081 3.63824
lowerneck -21.3976 -5.44989 -12.2481
upperneck 23.0948 -7.4945 14.0695
head 12.218 -2.719 6.16032
rclavicle -1.55301e-018 5.36719e-015
rhumerus -42.1426 12.09 -89.2403
rradius 41.7919
rwrist -23.8504
rhand -28.1553 -26.6668
rfingers 7.12502
rthumb -1.53591 -56.641
lclavicle -1.55301e-018 5.36719e-015
lhumerus -42.5052 -4.44971 90.0081
lradius 23.2676
lwrist -3.0531
lhand -7.54862 -22.4963
lfingers 7.12502
lthumb 18.3431 6.65879
rfemur 3.75141 -1.97079 18.2041
rtibia 41.2382
rfoot 3.40092 -4.70093
rtoes -21.061
lfemur -30.5295 8.46088 -23.3603
ltibia 27.3783
lfoot -6.92494 1.10414
ltoes -8.38627
255
root 10.0524 16.9154 2.80003 6.23051 -6.77963 0.382536
lowerback -7.05255 1.06591 -3.81675
upperback -1.51536 1.65943 1.39318
thorax 2.23565 0.804891 3.73231
lowerneck -21.6408 -5.40019 -12.3743
upperneck 23.3603 -7.37645 14.0555
head 12.3552 -2.67037 6.21293
rclavicle -3.99386e-014 0
rhumerus -42.0085 12.1365 -89.2187
rradius 41.0938
rwrist -23.566
rhand -28.0839 -26.4689
rfingers 7.12502
rthumb -1.46693 -56.4436
lclavicle -3.99386e-014 0
lhumerus -42.1331 -5.2826 90.4647
lradius 23.4824
lwrist -1.8093
lhand -8.09998 -22.0849
lfingers 7.12502
lthumb 17.8126 7.11929
rfemur 2.26739 -2.19523 17.7848
rtibia 44.1439
rfoot 3.94651 -5.55231
rtoes -19.2921
lfemur -29.5733 8.68841 -23.8004
ltibia 26.6981
lfoot -7.04078 0.848038
ltoes -8.97725
256
root 10.0852 16.9352 2.92544 6.05734 -6.85001 0.644354
lowerback -6.82278 0.967981 -4.01165
upperback -1.5111 1.53597 1.34076
thorax 2.1195 0.745123 3.77147
lowerneck -21.752 -5.32598 -12.2155
upperneck 23.4921 -7.25661 13.8147
head 12.3899 -2.62727 6.11557
rclavicle 1.69587e-014 -1.98785e-015
rhumerus -42.2651 12.5142 -89.3852
rradius 41.1104
rwrist -23.5315
rhand -28.21 -26.1272
rfingers 7.12502
rthumb -1.58875 -56.1011
lclavicle 1.69587e-014 -1.98785e-015
lhumerus -41.8036 -6.53707 91.0732
lradius 24.1616
lwrist 0.0245688
lhand -8.55358 -20.3242
lfingers 7.12502
lthumb 17.3761 8.91913
rfemur 0.87514 -2.68738 17.4283
rtibia 46.8261
rfoot 4.60113 -6.43328
rtoes -20.2735
lfemur -28.6038 9.07332 -24.2625
ltibia 26.059
lfoot -7.24205 0.395949
ltoes -9.63196
257
root 10.1102 16.965 3.0616 5.93391 -6.92936 0.976142
lowerback -6.82296 0.856976 -4.32455
upperback -1.4736 1.41311 1.24954
thorax 2.1644 0.680475 3.84415
lowerneck -21.6864 -5.17087 -11.8699
upperneck 23.4342 -7.05197 13.4626
head 12.2885 -2.5491 5.94511
rclavicle 2.24233e-014 -1.47101e-014
rhumerus -42.6541 13.026 -89.6633
rradius 41.4743
rwrist -23.7634
rhand -28.2807 -26.1276
rfingers 7.12502
rthumb -1.65703 -56.1009
lclavicle 2.24233e-014 -1.47101e-014
lhumerus -41.4341 -6.65216 90.7831
lradius 24.0928
lwrist 1.30456
lhand -9.1163 -21.7441
lfingers 7.12502
lthumb 16.8345 7.54612
rfemur -0.338308 -2.84764 17.0989
rtibia 49.2647
rfoot 4.60975 -7.61546
rtoes -18.1349
lfemur -27.6773 9.24967 -24.7177
ltibia 25.5404
lfoot -7.72037 0.204051
ltoes -10.7447
258
root 10.1343 16.9991 3.20076 5.88467 -7.06472 1.32166
lowerback -6.91495 0.777271 -4.69028
upperback -1.40804 1.33999 1.1867
thorax 2.28344 0.637545 3.98279
lowerneck -21.6493 -5.0883 -11.9915
upperneck 23.2635 -6.9116 13.5898
head 12.2029 -2.48396 6.03422
rclavicle 1.61256e-014 9.14409e-015
rhumerus -42.7476 13.3777 -89.7978
rradius 41.5451
rwrist -23.8734
rhand -28.0922 -26.3565
rfingers 7.12502
rthumb -1.47492 -56.3312
lclavicle 1.61256e-014 9.14409e-015
lhumerus -40.7815 -5.93456 89.9335
lradius 24.4977
lwrist 0.275234
lhand -7.94779 -21.349
lfingers 7.12502
lthumb 17.9591 7.84184
rfemur -1.53486 -2.78231 16.8112
rtibia 51.4858
rfoot 3.86286 -8.76336
rtoes -14.2149
lfemur -26.8717 9.3808 -25.1292
ltibia 25.1724
lfoot -8.30664 -0.099809
ltoes -10.2841
